<?xml version="1.0" encoding="UTF-8" standalone="no"?>
<!-- Generator: Adobe Illustrator 15.1.0, SVG Export Plug-In . SVG Version: 6.00 Build 0)  -->

<svg
   xmlns:dc="http://purl.org/dc/elements/1.1/"
   xmlns:cc="http://creativecommons.org/ns#"
   xmlns:rdf="http://www.w3.org/1999/02/22-rdf-syntax-ns#"
   xmlns:svg="http://www.w3.org/2000/svg"
   xmlns="http://www.w3.org/2000/svg"
   xmlns:sodipodi="http://sodipodi.sourceforge.net/DTD/sodipodi-0.dtd"
   xmlns:inkscape="http://www.inkscape.org/namespaces/inkscape"
   version="1.1"
   id="Layer_1"
   x="0px"
   y="0px"
   width="94px"
   height="100px"
   viewBox="0 0 94 100"
   enable-background="new 0 0 94 100"
   xml:space="preserve"
   inkscape:version="0.47 r22583"
   sodipodi:docname="noun_project_166_1.svg"><metadata
   id="metadata9"><rdf:RDF><cc:Work
       rdf:about=""><dc:format>image/svg+xml</dc:format><dc:type
         rdf:resource="http://purl.org/dc/dcmitype/StillImage" /><dc:title /></cc:Work></rdf:RDF></metadata><defs
   id="defs7"><inkscape:perspective
     sodipodi:type="inkscape:persp3d"
     inkscape:vp_x="0 : 50 : 1"
     inkscape:vp_y="0 : 1000 : 0"
     inkscape:vp_z="94 : 50 : 1"
     inkscape:persp3d-origin="47 : 33.333333 : 1"
     id="perspective11" /></defs><sodipodi:namedview
   pagecolor="#ffffff"
   bordercolor="#666666"
   borderopacity="1"
   objecttolerance="10"
   gridtolerance="10"
   guidetolerance="10"
   inkscape:pageopacity="0"
   inkscape:pageshadow="2"
   inkscape:window-width="847"
   inkscape:window-height="563"
   id="namedview5"
   showgrid="false"
   inkscape:zoom="2.38"
   inkscape:cx="47"
   inkscape:cy="50"
   inkscape:window-x="0"
   inkscape:window-y="24"
   inkscape:window-maximized="0"
   inkscape:current-layer="Layer_1" />
<path
   d="M 20.334383,6.756604 C 18.181532,5.056924 15.407746,4.030924 12.382979,4.030924 5.5549789,4.030924 0,9.252604 0,15.670924 c 0,6.418321 5.5549789,11.64 12.382979,11.64 3.408256,0 6.499149,-1.30128 8.740341,-3.402719 l -1.443575,-1.356961 c -1.871489,1.75392 -4.451489,2.83968 -7.296766,2.83968 -5.7017873,0 -10.3404258,-4.360319 -10.3404258,-9.72 0,-5.35968 4.6386385,-9.7199999 10.3404258,-9.7199999 2.461533,0 4.723659,0.8140799 6.501192,2.16888 l -3.565021,3.3511199 6.388085,0 2.221276,0 0.07149,0 -1e-6,-8.16 -3.665618,3.44568 z"
   id="path3"
   inkscape:export-filename="/home/unicoletti/Desktop/Lavoro/PERSONALE/mappu/sprout/maps/apps/maps/resources/images/refresh.png"
   inkscape:export-xdpi="90"
   inkscape:export-ydpi="90"
   style="fill:#595959;fill-opacity:1" />
</svg>