<?xml version="1.0" encoding="UTF-8" standalone="no"?>
<!-- Generator: Adobe Illustrator 14.0.0, SVG Export Plug-In . SVG Version: 6.00 Build 43363)  -->

<svg
   xmlns:dc="http://purl.org/dc/elements/1.1/"
   xmlns:cc="http://creativecommons.org/ns#"
   xmlns:rdf="http://www.w3.org/1999/02/22-rdf-syntax-ns#"
   xmlns:svg="http://www.w3.org/2000/svg"
   xmlns="http://www.w3.org/2000/svg"
   xmlns:sodipodi="http://sodipodi.sourceforge.net/DTD/sodipodi-0.dtd"
   xmlns:inkscape="http://www.inkscape.org/namespaces/inkscape"
   version="1.0"
   id="Layer_1"
   x="0px"
   y="0px"
   width="100px"
   height="56.533px"
   viewBox="0 0 100 56.533"
   enable-background="new 0 0 100 56.533"
   xml:space="preserve"
   inkscape:version="0.47 r22583"
   sodipodi:docname="noun_project_418.svg"><metadata
   id="metadata11"><rdf:RDF><cc:Work
       rdf:about=""><dc:format>image/svg+xml</dc:format><dc:type
         rdf:resource="http://purl.org/dc/dcmitype/StillImage" /></cc:Work></rdf:RDF></metadata><defs
   id="defs9"><inkscape:perspective
     sodipodi:type="inkscape:persp3d"
     inkscape:vp_x="0 : 28.2665 : 1"
     inkscape:vp_y="0 : 1000 : 0"
     inkscape:vp_z="100 : 28.2665 : 1"
     inkscape:persp3d-origin="50 : 18.844334 : 1"
     id="perspective13" /></defs><sodipodi:namedview
   pagecolor="#ffffff"
   bordercolor="#666666"
   borderopacity="1"
   objecttolerance="10"
   gridtolerance="10"
   guidetolerance="10"
   inkscape:pageopacity="0"
   inkscape:pageshadow="2"
   inkscape:window-width="1089"
   inkscape:window-height="621"
   id="namedview7"
   showgrid="false"
   inkscape:zoom="4.2099304"
   inkscape:cx="50"
   inkscape:cy="28.2665"
   inkscape:window-x="0"
   inkscape:window-y="24"
   inkscape:window-maximized="0"
   inkscape:current-layer="Layer_1" />

<g
   id="g3598"
   transform="matrix(0.2399928,0,0,0.2399928,-7.600072e-4,42.964644)"><g
     id="g3595"><path
       d="m 99.995,28.08 c -0.002,-0.042 -0.006,-0.082 -0.009,-0.123 -0.002,-0.021 -0.003,-0.042 -0.005,-0.062 -0.003,-0.03 -0.008,-0.06 -0.012,-0.089 -0.004,-0.035 -0.008,-0.07 -0.014,-0.104 C 99.954,27.698 99.953,27.693 99.953,27.689 99.83,26.916 99.466,26.191 98.908,25.633 95.718,21.852 91.923,18.487 88.064,15.414 79.753,8.792 70.248,3.252 59.756,1.022 53.692,-0.266 47.59,-0.321 41.494,0.769 35.949,1.761 30.605,3.823 25.603,6.379 c -7.829,4 -14.979,9.515 -21.209,15.698 -1.153,1.144 -2.3,2.312 -3.348,3.555 -1.396,1.654 -1.396,3.613 0,5.267 3.19,3.781 6.985,7.145 10.844,10.219 8.312,6.622 17.817,12.161 28.309,14.391 6.064,1.289 12.167,1.344 18.263,0.254 5.544,-0.992 10.888,-3.054 15.891,-5.61 7.829,-4.001 14.979,-9.515 21.209,-15.698 1.153,-1.145 2.3,-2.312 3.348,-3.555 0.558,-0.559 0.922,-1.283 1.045,-2.057 0,-0.004 0.001,-0.009 0.002,-0.013 0.006,-0.035 0.01,-0.069 0.014,-0.104 0.004,-0.029 0.009,-0.059 0.012,-0.089 0.002,-0.021 0.003,-0.041 0.005,-0.062 0.003,-0.04 0.007,-0.08 0.009,-0.122 0.003,-0.062 0.005,-0.124 0.005,-0.187 0,-0.063 -0.004,-0.124 -0.007,-0.186 z M 50,47.507 C 39.373,47.507 30.759,38.893 30.759,28.266 30.759,17.64 39.373,9.025 50,9.025 c 10.627,0 19.241,8.614 19.241,19.241 0,10.627 -8.614,19.241 -19.241,19.241 z"
       id="path3"
       style="fill:#646464;fill-opacity:1" /></g><circle
     style="fill:#646464;fill-opacity:1"
     id="circle5"
     r="6.369"
     cy="28.266001"
     cx="50"
     sodipodi:cx="50"
     sodipodi:cy="28.266001"
     sodipodi:rx="6.369"
     sodipodi:ry="6.369"
     d="m 56.369,28.266001 c 0,3.517501 -2.851498,6.369 -6.369,6.369 -3.517502,0 -6.369,-2.851499 -6.369,-6.369 0,-3.517502 2.851498,-6.369 6.369,-6.369 3.517502,0 6.369,2.851498 6.369,6.369 z" /></g>
</svg>